# xmcd
#
# Track frame offsets: 
#        150
#        15572
#        36365
#        64460
#        83607
#        97340
#        111945
#        136700
#        154160
#        171402
#        189567
#
# Disc length: 2836 seconds
#
# Revision: 7
# Processed by: cddbd v1.5.2PL0 Copyright (c) Steve Scherf et al.
# Submitted via: ExactAudioCopy v1.3
#
DISCID=950b120b
DTITLE=K.D. Lang - Recollection
DYEAR=2010
DGENRE=Country
TTITLE0=Trail Of Broken Hearts [1989]
TTITLE1=Constant Craving [1992]
TTITLE2=The Air That I Breathe [1997]
TTITLE3=Helpless [2004]
TTITLE4=You're OK [1995]
TTITLE5=Western Stars [Chris Isaak] [1988]
TTITLE6=The Valley [2004]]
TTITLE7=Summerfling [2000]
TTITLE8=Miss Chatelaine [1992]
TTITLE9=I Dream Of Spring [2008]
TTITLE10=Hallellujah [2004]
EXTD=
EXTT0=
EXTT1=
EXTT2=
EXTT3=
EXTT4=
EXTT5=
EXTT6=
EXTT7=
EXTT8=
EXTT9=
EXTT10=
PLAYORDER=
